<svg width="54" height="53" viewBox="0 0 54 53" fill="none" xmlns="http://www.w3.org/2000/svg">
<path d="M53.6878 18.0524H40.2637V26.3174C40.2289 29.954 38.9152 33.0599 36.3226 35.6351C33.7039 38.2625 30.5458 39.5849 26.8483 39.5849C23.1508 39.5849 19.9839 38.2712 17.3739 35.6351C14.7465 33.0164 13.4241 29.8583 13.4241 26.1608V18.0176H0V26.474C0.0783002 33.7559 2.6883 39.9851 7.83871 45.1529C13.0848 50.3817 19.4184 53.0004 26.8308 53.0004C34.2433 53.0004 40.5595 50.3817 45.8056 45.1529C51.0517 39.9068 53.6791 33.5732 53.6791 26.1608V19.4183V18.0524H53.6878Z" fill="#E12827"/>
<path d="M13.4311 6.70772C13.4311 3.0015 10.4296 0 6.72335 0C3.01714 0 0.015625 3.0015 0.015625 6.70772C0.015625 10.4139 3.01714 13.4154 6.72335 13.4154C10.4296 13.4154 13.4311 10.4139 13.4311 6.70772Z" fill="#E12827"/>
<path d="M53.6928 6.70772C53.6928 3.0015 50.6913 0 46.9851 0C43.2788 0 40.2773 3.0015 40.2773 6.70772C40.2773 10.4139 43.2788 13.4154 46.9851 13.4154C50.6913 13.4154 53.6928 10.4139 53.6928 6.70772Z" fill="#E12827"/>
</svg>
